<svg xmlns="http://www.w3.org/2000/svg" version="1.0" viewBox="0 0 429 225"><path d="M150 34.2C93.8 39.4 47 83.2 33.8 143c-2.2 10.1-3.9 46-2.2 46 .5 0 5.6-4.8 11.4-10.7 51.9-52.6 107.4-57.7 151.5-13.9 83.8 83.2 213.8 24.8 214-96.1 0-21.4-.1-21.5-9.2-10.8-45.7 53.2-109.4 57-155.8 9.4-23.3-23.9-57.9-36-93.5-32.7m28.5 30.4c20 3.5 32.2 10.2 50.4 27.9 39.5 38.3 91.2 48.3 135 26.1 6.7-3.4 7.3-2.8 3.6 3.7-25.3 45.3-80 63.4-125.5 41.5-10.3-4.9-14.6-8.3-28-21.3-39.3-38.3-91.3-48.5-135.2-26.4-5.2 2.6-5.3 2.5-2.2-2.9 20.2-35.1 62.9-55.4 101.9-48.6"/></svg>