<!-- https://materialdesignicons.com/ -->

<svg xmlns="http://www.w3.org/2000/svg">
  <defs>
    <symbol id="settings"
      xmlns="http://www.w3.org/2000/svg" viewBox="0 0 1024 1024">
      <path
        d="M993.318 624.214l-94.122-73.6c1.194-11.35 2.218-24.618 2.218-38.656s-0.982-27.306-2.218-38.656l94.208-73.642c17.494-13.824 22.272-38.358 11.136-58.794l-97.878-169.346c-10.454-19.114-33.366-28.928-56.618-20.352l-111.062 44.586c-21.29-15.36-43.606-28.33-66.688-38.698l-16.896-117.802c-2.774-22.358-22.23-39.254-45.226-39.254h-196.266c-22.998 0-42.41 16.896-45.142 38.912l-16.938 118.23c-22.358 10.070-44.33 22.87-66.56 38.698l-111.36-44.714c-20.866-8.064-45.826 0.98-56.194 20.010l-98.004 169.558c-11.562 19.542-6.784 44.928 11.094 59.094l94.122 73.6c-1.494 14.378-2.218 26.88-2.218 38.614s0.726 24.234 2.218 38.656l-94.208 73.642c-17.494 13.866-22.23 38.4-11.094 58.794l97.878 169.344c10.454 19.072 33.152 28.97 56.618 20.352l111.062-44.586c21.248 15.318 43.562 28.288 66.646 38.698l16.896 117.76c2.772 22.442 22.186 39.338 45.226 39.338h196.266c22.998 0 42.454-16.896 45.184-38.912l16.938-118.186c22.358-10.112 44.288-22.87 66.56-38.742l111.36 44.714c5.376 2.090 10.966 3.158 16.726 3.158 16.554 0 31.786-9.046 39.466-23.126l98.304-170.24c10.924-19.968 6.144-44.5-11.434-58.452zM512.038 682.666c-94.122 0-170.666-76.544-170.666-170.666s76.544-170.666 170.666-170.666 170.666 76.544 170.666 170.666-76.544 170.666-170.666 170.666z" />
    </symbol>


    <symbol id="info"
      xmlns="http://www.w3.org/2000/svg" viewBox="0 0 24 24">
      <path
        d="M11,9H13V7H11M12,20C7.59,20 4,16.41 4,12C4,7.59 7.59,4 12,4C16.41,4 20,7.59 20,12C20,16.41 16.41,20 12,20M12,2A10,10 0 0,0 2,12A10,10 0 0,0 12,22A10,10 0 0,0 22,12A10,10 0 0,0 12,2M11,17H13V11H11V17Z" />
    </symbol>

    <symbol id="warning"
      xmlns="http://www.w3.org/2000/svg" viewBox="0 0 24 24">
      <path d="M12,2L1,21H23M12,6L19.53,19H4.47M11,10V14H13V10M11,16V18H13V16" />
    </symbol>

    <symbol id="error"
      xmlns="http://www.w3.org/2000/svg" viewBox="0 0 24 24">
      <path
        d="M11,15H13V17H11V15M11,7H13V13H11V7M12,2C6.47,2 2,6.5 2,12A10,10 0 0,0 12,22A10,10 0 0,0 22,12A10,10 0 0,0 12,2M12,20A8,8 0 0,1 4,12A8,8 0 0,1 12,4A8,8 0 0,1 20,12A8,8 0 0,1 12,20Z" />
    </symbol>

    <symbol id="home"
      xmlns="http://www.w3.org/2000/svg" viewBox="0 0 1024 1024">
      <path
        d="M996.391 445.391c-0.023-0.023-0.047-0.047-0.070-0.070l-417.711-417.695c-17.805-17.813-41.477-27.625-66.656-27.625s-48.852 9.805-66.664 27.617l-417.492 417.484c-0.141 0.141-0.281 0.289-0.422 0.43-36.563 36.773-36.5 96.438 0.18 133.117 16.758 16.766 38.891 26.477 62.555 27.492 0.961 0.094 1.93 0.141 2.906 0.141h16.648v307.398c0 60.828 49.492 110.32 110.336 110.32h163.422c16.563 0 30-13.43 30-30v-241c0-27.758 22.578-50.336 50.336-50.336h96.391c27.758 0 50.336 22.578 50.336 50.336v241c0 16.57 13.43 30 30 30h163.422c60.844 0 110.336-49.492 110.336-110.32v-307.398h15.438c25.172 0 48.844-9.805 66.664-27.617 36.719-36.742 36.734-96.508 0.047-133.273z"></path>
    </symbol>


    <symbol id="flow"
      xmlns="http://www.w3.org/2000/svg" viewBox="0 0 429 225">
      <path d="M150 34.2C93.8 39.4 47 83.2 33.8 143c-2.2 10.1-3.9 46-2.2 46 .5 0 5.6-4.8 11.4-10.7 51.9-52.6 107.4-57.7 151.5-13.9 83.8 83.2 213.8 24.8 214-96.1 0-21.4-.1-21.5-9.2-10.8-45.7 53.2-109.4 57-155.8 9.4-23.3-23.9-57.9-36-93.5-32.7m28.5 30.4c20 3.5 32.2 10.2 50.4 27.9 39.5 38.3 91.2 48.3 135 26.1 6.7-3.4 7.3-2.8 3.6 3.7-25.3 45.3-80 63.4-125.5 41.5-10.3-4.9-14.6-8.3-28-21.3-39.3-38.3-91.3-48.5-135.2-26.4-5.2 2.6-5.3 2.5-2.2-2.9 20.2-35.1 62.9-55.4 101.9-48.6"/>
    </symbol>

  </defs>
</svg>